<?xml version="1.0" encoding="UTF-8" standalone="no"?>
<!DOCTYPE svg PUBLIC "-//W3C//DTD SVG 1.0//EN" "http://www.w3.org/TR/2001/REC-SVG-20010904/DTD/svg10.dtd">
<!-- Generiert durch Microsoft Visio 11.0, SVG Export, v1.0 Turtle.svg Page-1 -->
<svg xmlns="http://www.w3.org/2000/svg" xmlns:xlink="http://www.w3.org/1999/xlink" xmlns:ev="http://www.w3.org/2001/xml-events"
		xmlns:v="http://schemas.microsoft.com/visio/2003/SVGExtensions/" width="6.05785in" height="7.34446in"
		viewBox="0 0 436.165 528.801" xml:space="preserve" color-interpolation-filters="sRGB" class="st3">
	<v:documentProperties v:langID="1031" v:metric="true" v:viewMarkup="false">
		<v:userDefs>
			<v:ud v:nameU="msvNoAutoConnect" v:val="VT0(1):26"/>
		</v:userDefs>
	</v:documentProperties>

	<style type="text/css">
	<![CDATA[
		.st1 {fill:#789440;stroke:#789440;stroke-linecap:round;stroke-linejoin:round;stroke-width:0.24}
		.st2 {fill:#789440;stroke:#789440;stroke-linecap:round;stroke-linejoin:round;stroke-width:0.75}
		.st3 {fill:none;fill-rule:evenodd;font-size:12px;overflow:visible;stroke-linecap:square;stroke-miterlimit:3}
	]]>
	</style>

	<g v:mID="0" v:index="1" v:groupContext="foregroundPage">
		<title>Page-1</title>
		<v:pageProperties v:drawingScale="0.0393701" v:pageScale="0.0393701" v:drawingUnits="24" v:shadowOffsetX="8.50394"
				v:shadowOffsetY="-8.50394"/>
		<g id="group4-1" transform="translate(18.24,-18.24)" v:mID="4" v:groupContext="group">
			<title>Tabelle.4</title>
			<g id="shape3-2" v:mID="3" v:groupContext="shape" transform="translate(54.2542,-87.874)">
				<title>Tabelle.3</title>
				<path d="M227.79 500.8 A143.15 143.15 -180 0 0 284.8 403.36 L216.05 403.36 L193.79 441.91 L227.79 500.8 ZM285.51
							 375.01 A143.15 143.15 -180 0 0 230.69 272.7 L193.7 336.76 L215.79 375.01 L285.51 375.01 ZM206.69 257.57
							 A143.15 143.15 -180 0 0 85.55 254.43 L124.89 322.57 L169.16 322.57 L206.69 257.57 ZM60.81 268.27 A143.15
							 143.15 -180 0 0 0 375.01 L78.27 375.01 L100.35 336.76 L60.81 268.27 ZM0.7 403.36 A143.15 143.15 -180
							 0 0 63.8 505.06 L100.39 441.7 L78.25 403.36 L0.7 403.36 ZM88.9 518.29 A143.15 143.15 -180 0 0 203.43
							 515.3 L169.24 456.08 L124.81 456.08 L88.9 518.29 ZM103.81 389.41 L125.37 426.74 L168.69 426.74 L190.36
							 389.2 L168.83 351.91 L125.46 351.91 L103.81 389.41 Z" class="st1"/>
			</g>
			<g id="shape1-4" v:mID="1" v:groupContext="shape" transform="translate(2.8777E-013,-263.229)">
				<title>Tabelle.1</title>
				<path d="M74.83 430.76 A56.6929 56.6929 -180 0 0 0 484.47 A56.6929 56.6929 -180 0 0 21.35 528.8 A178.583 178.583
							 0 0 1 74.83 430.76 Z" class="st1"/>
			</g>
			<g id="shape6-6" v:mID="6" v:groupContext="shape" transform="translate(135.354,-398.25)">
				<title>Tabelle.6</title>
				<path d="M124.32 528.8 A63.0709 75.5433 -180 1 0 1.63 527.83 A178.583 178.583 0 0 1 124.32 528.8 Z" class="st2"/>
			</g>
			<g id="shape2-8" v:mID="2" v:groupContext="shape" transform="translate(322.861,-257.057)">
				<title>Tabelle.2</title>
				<path d="M50.82 528.8 A56.6929 56.6929 -180 0 0 76.82 481.13 A56.6929 56.6929 -180 0 0 -0 428.14 A178.583 178.583
							 0 0 1 50.82 528.8 Z" class="st1"/>
			</g>
			<g id="shape7-10" v:mID="7" v:groupContext="shape" transform="translate(309.707,-83.622)">
				<title>Tabelle.7</title>
				<path d="M-0 519.93 A56.6929 56.6929 -180 0 0 87.14 472.11 A56.6929 56.6929 -180 0 0 60.69 424.15 A178.583 178.583
							 0 0 1 0 519.93 Z" class="st1"/>
			</g>
			<g id="shape8-12" v:mID="8" v:groupContext="shape" transform="translate(163.736,0)">
				<title>Tabelle.8</title>
				<path d="M0.17 473.26 A8.50394 8.50394 -180 0 0 1.14 479.19 L27.32 524.55 A8.50394 8.50394 -180 0 0 42.05 524.55
							 L68.24 479.19 A8.50394 8.50394 -180 0 0 69.09 472.73 A178.583 178.583 0 0 1 0.17 473.26 Z" class="st1"/>
			</g>
			<g id="shape9-14" v:mID="9" v:groupContext="shape" transform="translate(3.19744E-014,-83.622)">
				<title>Tabelle.9</title>
				<path d="M24.03 425.77 A56.6929 56.6929 -180 0 0 -0 472.11 A56.6929 56.6929 -180 0 0 85.53 520.92 A178.583 178.583
							 0 0 1 24.03 425.77 Z" class="st1"/>
			</g>
		</g>
	</g>
</svg>
